<mxfile host="Electron" agent="Mozilla/5.0 (Windows NT 10.0; Win64; x64) AppleWebKit/537.36 (KHTML, like Gecko) draw.io/26.2.15 Chrome/134.0.6998.205 Electron/35.2.1 Safari/537.36" version="26.2.15">
  <diagram id="C5RBs43oDa-KdzZeNtuy" name="Page-1">
    <mxGraphModel dx="1061" dy="823" grid="1" gridSize="10" guides="1" tooltips="1" connect="1" arrows="1" fold="1" page="1" pageScale="1" pageWidth="827" pageHeight="1169" math="0" shadow="0" adaptiveColors="none">
      <root>
        <mxCell id="WIyWlLk6GJQsqaUBKTNV-0" />
        <mxCell id="WIyWlLk6GJQsqaUBKTNV-1" parent="WIyWlLk6GJQsqaUBKTNV-0" />
        <mxCell id="0GU9FVYjFVz0X6F0ksyF-1" value="" style="edgeStyle=orthogonalEdgeStyle;rounded=0;orthogonalLoop=1;jettySize=auto;html=1;entryX=0;entryY=0.5;entryDx=0;entryDy=0;" parent="WIyWlLk6GJQsqaUBKTNV-1" source="WIyWlLk6GJQsqaUBKTNV-3" target="0GU9FVYjFVz0X6F0ksyF-4" edge="1">
          <mxGeometry relative="1" as="geometry" />
        </mxCell>
        <mxCell id="WIyWlLk6GJQsqaUBKTNV-3" value="StartPreload" style="rounded=1;whiteSpace=wrap;html=1;fontSize=12;glass=0;strokeWidth=1;shadow=0;fillColor=#d5e8d4;strokeColor=#82b366;" parent="WIyWlLk6GJQsqaUBKTNV-1" vertex="1">
          <mxGeometry x="300" y="1660" width="120" height="40" as="geometry" />
        </mxCell>
        <mxCell id="0GU9FVYjFVz0X6F0ksyF-16" style="edgeStyle=orthogonalEdgeStyle;rounded=0;orthogonalLoop=1;jettySize=auto;html=1;exitX=0.5;exitY=1;exitDx=0;exitDy=0;entryX=0.5;entryY=0;entryDx=0;entryDy=0;" parent="WIyWlLk6GJQsqaUBKTNV-1" source="0GU9FVYjFVz0X6F0ksyF-0" target="0GU9FVYjFVz0X6F0ksyF-15" edge="1">
          <mxGeometry relative="1" as="geometry" />
        </mxCell>
        <mxCell id="0GU9FVYjFVz0X6F0ksyF-0" value="尝试加载StreamingAssets中的setting.json" style="whiteSpace=wrap;html=1;rounded=1;glass=0;strokeWidth=1;shadow=0;" parent="WIyWlLk6GJQsqaUBKTNV-1" vertex="1">
          <mxGeometry x="300" y="1770" width="120" height="60" as="geometry" />
        </mxCell>
        <mxCell id="0GU9FVYjFVz0X6F0ksyF-6" value="失败" style="edgeStyle=orthogonalEdgeStyle;rounded=0;orthogonalLoop=1;jettySize=auto;html=1;entryX=0.5;entryY=0;entryDx=0;entryDy=0;" parent="WIyWlLk6GJQsqaUBKTNV-1" source="0GU9FVYjFVz0X6F0ksyF-4" target="0GU9FVYjFVz0X6F0ksyF-7" edge="1">
          <mxGeometry relative="1" as="geometry">
            <mxPoint x="649" y="1680" as="targetPoint" />
          </mxGeometry>
        </mxCell>
        <mxCell id="0GU9FVYjFVz0X6F0ksyF-9" value="成功" style="edgeStyle=orthogonalEdgeStyle;rounded=0;orthogonalLoop=1;jettySize=auto;html=1;entryX=0.5;entryY=0;entryDx=0;entryDy=0;" parent="WIyWlLk6GJQsqaUBKTNV-1" source="0GU9FVYjFVz0X6F0ksyF-4" target="0GU9FVYjFVz0X6F0ksyF-11" edge="1">
          <mxGeometry relative="1" as="geometry">
            <mxPoint x="515" y="1810" as="targetPoint" />
          </mxGeometry>
        </mxCell>
        <mxCell id="0GU9FVYjFVz0X6F0ksyF-4" value="尝试加载内嵌setting.json" style="rhombus;whiteSpace=wrap;html=1;" parent="WIyWlLk6GJQsqaUBKTNV-1" vertex="1">
          <mxGeometry x="475" y="1640" width="80" height="80" as="geometry" />
        </mxCell>
        <mxCell id="0GU9FVYjFVz0X6F0ksyF-17" style="edgeStyle=orthogonalEdgeStyle;rounded=0;orthogonalLoop=1;jettySize=auto;html=1;exitX=0.5;exitY=1;exitDx=0;exitDy=0;entryX=0.5;entryY=0;entryDx=0;entryDy=0;" parent="WIyWlLk6GJQsqaUBKTNV-1" source="0GU9FVYjFVz0X6F0ksyF-7" target="0GU9FVYjFVz0X6F0ksyF-18" edge="1">
          <mxGeometry relative="1" as="geometry" />
        </mxCell>
        <mxCell id="0GU9FVYjFVz0X6F0ksyF-7" value="更新网络setting.json" style="rounded=1;whiteSpace=wrap;html=1;" parent="WIyWlLk6GJQsqaUBKTNV-1" vertex="1">
          <mxGeometry x="630" y="1770" width="120" height="60" as="geometry" />
        </mxCell>
        <mxCell id="0GU9FVYjFVz0X6F0ksyF-13" value="是" style="edgeStyle=orthogonalEdgeStyle;rounded=0;orthogonalLoop=1;jettySize=auto;html=1;entryX=1;entryY=0.5;entryDx=0;entryDy=0;" parent="WIyWlLk6GJQsqaUBKTNV-1" source="0GU9FVYjFVz0X6F0ksyF-11" target="0GU9FVYjFVz0X6F0ksyF-0" edge="1">
          <mxGeometry relative="1" as="geometry">
            <mxPoint x="515" y="1970" as="targetPoint" />
          </mxGeometry>
        </mxCell>
        <mxCell id="0GU9FVYjFVz0X6F0ksyF-14" value="否" style="edgeStyle=orthogonalEdgeStyle;rounded=0;orthogonalLoop=1;jettySize=auto;html=1;exitX=1;exitY=0.5;exitDx=0;exitDy=0;entryX=0;entryY=0.5;entryDx=0;entryDy=0;" parent="WIyWlLk6GJQsqaUBKTNV-1" source="0GU9FVYjFVz0X6F0ksyF-11" target="0GU9FVYjFVz0X6F0ksyF-7" edge="1">
          <mxGeometry relative="1" as="geometry" />
        </mxCell>
        <mxCell id="0GU9FVYjFVz0X6F0ksyF-11" value="内嵌setting.json是否标记不用热更" style="rhombus;whiteSpace=wrap;html=1;" parent="WIyWlLk6GJQsqaUBKTNV-1" vertex="1">
          <mxGeometry x="475" y="1760" width="80" height="80" as="geometry" />
        </mxCell>
        <mxCell id="0GU9FVYjFVz0X6F0ksyF-25" style="edgeStyle=orthogonalEdgeStyle;rounded=0;orthogonalLoop=1;jettySize=auto;html=1;exitX=0.5;exitY=1;exitDx=0;exitDy=0;entryX=0.5;entryY=0;entryDx=0;entryDy=0;" parent="WIyWlLk6GJQsqaUBKTNV-1" source="0GU9FVYjFVz0X6F0ksyF-15" target="0GU9FVYjFVz0X6F0ksyF-26" edge="1">
          <mxGeometry relative="1" as="geometry">
            <mxPoint x="635" y="2450" as="targetPoint" />
          </mxGeometry>
        </mxCell>
        <mxCell id="0GU9FVYjFVz0X6F0ksyF-15" value="按照setting.json初始Runtime" style="rounded=1;whiteSpace=wrap;html=1;" parent="WIyWlLk6GJQsqaUBKTNV-1" vertex="1">
          <mxGeometry x="265" y="1880" width="190" height="60" as="geometry" />
        </mxCell>
        <mxCell id="0GU9FVYjFVz0X6F0ksyF-20" value="" style="edgeStyle=orthogonalEdgeStyle;rounded=0;orthogonalLoop=1;jettySize=auto;html=1;" parent="WIyWlLk6GJQsqaUBKTNV-1" source="0GU9FVYjFVz0X6F0ksyF-18" target="0GU9FVYjFVz0X6F0ksyF-19" edge="1">
          <mxGeometry relative="1" as="geometry" />
        </mxCell>
        <mxCell id="0GU9FVYjFVz0X6F0ksyF-18" value="按照setting.json初始Runtime" style="rounded=1;whiteSpace=wrap;html=1;" parent="WIyWlLk6GJQsqaUBKTNV-1" vertex="1">
          <mxGeometry x="595" y="1880" width="190" height="60" as="geometry" />
        </mxCell>
        <mxCell id="0GU9FVYjFVz0X6F0ksyF-22" value="" style="edgeStyle=orthogonalEdgeStyle;rounded=0;orthogonalLoop=1;jettySize=auto;html=1;" parent="WIyWlLk6GJQsqaUBKTNV-1" source="0GU9FVYjFVz0X6F0ksyF-19" target="0GU9FVYjFVz0X6F0ksyF-21" edge="1">
          <mxGeometry relative="1" as="geometry" />
        </mxCell>
        <mxCell id="0GU9FVYjFVz0X6F0ksyF-19" value="客户端更新检查" style="whiteSpace=wrap;html=1;rounded=1;" parent="WIyWlLk6GJQsqaUBKTNV-1" vertex="1">
          <mxGeometry x="630" y="1990" width="120" height="60" as="geometry" />
        </mxCell>
        <mxCell id="0GU9FVYjFVz0X6F0ksyF-24" value="" style="edgeStyle=orthogonalEdgeStyle;rounded=0;orthogonalLoop=1;jettySize=auto;html=1;entryX=1;entryY=0.5;entryDx=0;entryDy=0;" parent="WIyWlLk6GJQsqaUBKTNV-1" source="0GU9FVYjFVz0X6F0ksyF-21" target="0GU9FVYjFVz0X6F0ksyF-26" edge="1">
          <mxGeometry relative="1" as="geometry">
            <mxPoint x="635" y="2200" as="targetPoint" />
          </mxGeometry>
        </mxCell>
        <mxCell id="0GU9FVYjFVz0X6F0ksyF-21" value="res.json更新检查" style="whiteSpace=wrap;html=1;rounded=1;" parent="WIyWlLk6GJQsqaUBKTNV-1" vertex="1">
          <mxGeometry x="630" y="2080" width="120" height="60" as="geometry" />
        </mxCell>
        <mxCell id="0GU9FVYjFVz0X6F0ksyF-28" style="edgeStyle=orthogonalEdgeStyle;rounded=0;orthogonalLoop=1;jettySize=auto;html=1;exitX=0.5;exitY=1;exitDx=0;exitDy=0;entryX=0.5;entryY=0;entryDx=0;entryDy=0;" parent="WIyWlLk6GJQsqaUBKTNV-1" source="0GU9FVYjFVz0X6F0ksyF-26" target="0GU9FVYjFVz0X6F0ksyF-27" edge="1">
          <mxGeometry relative="1" as="geometry" />
        </mxCell>
        <mxCell id="0GU9FVYjFVz0X6F0ksyF-29" value="NO" style="edgeLabel;html=1;align=center;verticalAlign=middle;resizable=0;points=[];" parent="0GU9FVYjFVz0X6F0ksyF-28" vertex="1" connectable="0">
          <mxGeometry x="-0.2182" y="3" relative="1" as="geometry">
            <mxPoint as="offset" />
          </mxGeometry>
        </mxCell>
        <mxCell id="0GU9FVYjFVz0X6F0ksyF-31" value="" style="edgeStyle=orthogonalEdgeStyle;rounded=0;orthogonalLoop=1;jettySize=auto;html=1;" parent="WIyWlLk6GJQsqaUBKTNV-1" source="0GU9FVYjFVz0X6F0ksyF-26" target="0GU9FVYjFVz0X6F0ksyF-30" edge="1">
          <mxGeometry relative="1" as="geometry" />
        </mxCell>
        <mxCell id="0GU9FVYjFVz0X6F0ksyF-26" value="项目是否使用代码热更" style="rhombus;whiteSpace=wrap;html=1;" parent="WIyWlLk6GJQsqaUBKTNV-1" vertex="1">
          <mxGeometry x="320" y="2070" width="80" height="80" as="geometry" />
        </mxCell>
        <mxCell id="0GU9FVYjFVz0X6F0ksyF-27" value="ILBridge启动脚本" style="rounded=1;whiteSpace=wrap;html=1;fillColor=#f8cecc;strokeColor=#b85450;" parent="WIyWlLk6GJQsqaUBKTNV-1" vertex="1">
          <mxGeometry x="300" y="2210" width="120" height="60" as="geometry" />
        </mxCell>
        <mxCell id="0GU9FVYjFVz0X6F0ksyF-32" style="edgeStyle=orthogonalEdgeStyle;rounded=0;orthogonalLoop=1;jettySize=auto;html=1;exitX=0.5;exitY=1;exitDx=0;exitDy=0;entryX=0;entryY=0.5;entryDx=0;entryDy=0;" parent="WIyWlLk6GJQsqaUBKTNV-1" source="0GU9FVYjFVz0X6F0ksyF-30" target="0GU9FVYjFVz0X6F0ksyF-27" edge="1">
          <mxGeometry relative="1" as="geometry" />
        </mxCell>
        <mxCell id="0GU9FVYjFVz0X6F0ksyF-30" value="加载Dll文件" style="whiteSpace=wrap;html=1;" parent="WIyWlLk6GJQsqaUBKTNV-1" vertex="1">
          <mxGeometry x="130" y="2080" width="120" height="60" as="geometry" />
        </mxCell>
        <mxCell id="CE5bHnbImw-FEuCOfar4-0" value="&lt;h1&gt;什么是Launcher&lt;/h1&gt;&lt;p&gt;Launcher是Zero框架启动的控制器，通过5个步骤完成框架的初始化，并进入到业务逻辑层。&lt;/p&gt;&lt;p&gt;这5个步骤分别是：&lt;/p&gt;&lt;p&gt;&lt;/p&gt;&lt;ol&gt;&lt;li&gt;内嵌资源初始器&lt;/li&gt;&lt;li&gt;网络setting.json更新器&lt;/li&gt;&lt;li&gt;客户端更新检查器&lt;/li&gt;&lt;li&gt;启动资源准备器&lt;/li&gt;&lt;li&gt;业务逻辑代码入口启动器&lt;/li&gt;&lt;/ol&gt;&lt;p&gt;&lt;/p&gt;" style="text;html=1;strokeColor=none;fillColor=none;spacing=5;spacingTop=-20;whiteSpace=wrap;overflow=hidden;rounded=0;" parent="WIyWlLk6GJQsqaUBKTNV-1" vertex="1">
          <mxGeometry x="25" y="10" width="515" height="220" as="geometry" />
        </mxCell>
        <mxCell id="a1JKhhDvmPs5Y0l_pd3h-0" value="Launcher被实例化，通过LauncherSettingData开始启动" style="ellipse;html=1;shape=startState;fillColor=#000000;strokeColor=#ff0000;labelPosition=center;verticalLabelPosition=top;align=center;verticalAlign=bottom;" vertex="1" parent="WIyWlLk6GJQsqaUBKTNV-1">
          <mxGeometry x="385" y="260" width="30" height="30" as="geometry" />
        </mxCell>
        <mxCell id="a1JKhhDvmPs5Y0l_pd3h-1" value="" style="edgeStyle=orthogonalEdgeStyle;html=1;verticalAlign=bottom;endArrow=open;endSize=8;strokeColor=#ff0000;rounded=0;entryX=0.5;entryY=0;entryDx=0;entryDy=0;" edge="1" source="a1JKhhDvmPs5Y0l_pd3h-0" parent="WIyWlLk6GJQsqaUBKTNV-1" target="a1JKhhDvmPs5Y0l_pd3h-2">
          <mxGeometry relative="1" as="geometry">
            <mxPoint x="400" y="350" as="targetPoint" />
          </mxGeometry>
        </mxCell>
        <mxCell id="a1JKhhDvmPs5Y0l_pd3h-4" value="N" style="edgeStyle=orthogonalEdgeStyle;rounded=0;orthogonalLoop=1;jettySize=auto;html=1;exitX=0;exitY=0.5;exitDx=0;exitDy=0;entryX=1;entryY=0.5;entryDx=0;entryDy=0;" edge="1" parent="WIyWlLk6GJQsqaUBKTNV-1" source="a1JKhhDvmPs5Y0l_pd3h-2" target="a1JKhhDvmPs5Y0l_pd3h-3">
          <mxGeometry relative="1" as="geometry" />
        </mxCell>
        <mxCell id="a1JKhhDvmPs5Y0l_pd3h-6" value="Y" style="edgeStyle=orthogonalEdgeStyle;rounded=0;orthogonalLoop=1;jettySize=auto;html=1;" edge="1" parent="WIyWlLk6GJQsqaUBKTNV-1" source="a1JKhhDvmPs5Y0l_pd3h-2" target="a1JKhhDvmPs5Y0l_pd3h-5">
          <mxGeometry relative="1" as="geometry" />
        </mxCell>
        <mxCell id="a1JKhhDvmPs5Y0l_pd3h-2" value="isEditor" style="rhombus;whiteSpace=wrap;html=1;labelPosition=center;verticalLabelPosition=middle;align=center;verticalAlign=middle;" vertex="1" parent="WIyWlLk6GJQsqaUBKTNV-1">
          <mxGeometry x="360" y="350" width="80" height="80" as="geometry" />
        </mxCell>
        <mxCell id="a1JKhhDvmPs5Y0l_pd3h-3" value="强制开启AB模式" style="rounded=1;whiteSpace=wrap;html=1;" vertex="1" parent="WIyWlLk6GJQsqaUBKTNV-1">
          <mxGeometry x="160" y="360" width="120" height="60" as="geometry" />
        </mxCell>
        <mxCell id="a1JKhhDvmPs5Y0l_pd3h-9" value="" style="edgeStyle=orthogonalEdgeStyle;rounded=0;orthogonalLoop=1;jettySize=auto;html=1;entryX=0.513;entryY=0.088;entryDx=0;entryDy=0;entryPerimeter=0;" edge="1" parent="WIyWlLk6GJQsqaUBKTNV-1" source="a1JKhhDvmPs5Y0l_pd3h-5" target="a1JKhhDvmPs5Y0l_pd3h-14">
          <mxGeometry relative="1" as="geometry" />
        </mxCell>
        <mxCell id="a1JKhhDvmPs5Y0l_pd3h-5" value="运行内嵌资源初始器" style="rounded=1;whiteSpace=wrap;html=1;" vertex="1" parent="WIyWlLk6GJQsqaUBKTNV-1">
          <mxGeometry x="340" y="490" width="120" height="60" as="geometry" />
        </mxCell>
        <mxCell id="a1JKhhDvmPs5Y0l_pd3h-7" style="edgeStyle=orthogonalEdgeStyle;rounded=0;orthogonalLoop=1;jettySize=auto;html=1;exitX=0.5;exitY=1;exitDx=0;exitDy=0;entryX=0;entryY=0.5;entryDx=0;entryDy=0;" edge="1" parent="WIyWlLk6GJQsqaUBKTNV-1" source="a1JKhhDvmPs5Y0l_pd3h-3" target="a1JKhhDvmPs5Y0l_pd3h-5">
          <mxGeometry relative="1" as="geometry" />
        </mxCell>
        <mxCell id="a1JKhhDvmPs5Y0l_pd3h-11" value="N" style="edgeStyle=orthogonalEdgeStyle;rounded=0;orthogonalLoop=1;jettySize=auto;html=1;entryX=1;entryY=0.5;entryDx=0;entryDy=0;" edge="1" parent="WIyWlLk6GJQsqaUBKTNV-1" source="a1JKhhDvmPs5Y0l_pd3h-8" target="a1JKhhDvmPs5Y0l_pd3h-16">
          <mxGeometry relative="1" as="geometry">
            <mxPoint x="545" y="730" as="targetPoint" />
            <Array as="points">
              <mxPoint x="580" y="730" />
              <mxPoint x="580" y="1030" />
            </Array>
          </mxGeometry>
        </mxCell>
        <mxCell id="a1JKhhDvmPs5Y0l_pd3h-13" value="Y" style="edgeStyle=orthogonalEdgeStyle;rounded=0;orthogonalLoop=1;jettySize=auto;html=1;" edge="1" parent="WIyWlLk6GJQsqaUBKTNV-1" source="a1JKhhDvmPs5Y0l_pd3h-8" target="a1JKhhDvmPs5Y0l_pd3h-12">
          <mxGeometry relative="1" as="geometry" />
        </mxCell>
        <mxCell id="a1JKhhDvmPs5Y0l_pd3h-8" value="热更是否开启" style="rhombus;whiteSpace=wrap;html=1;rounded=1;" vertex="1" parent="WIyWlLk6GJQsqaUBKTNV-1">
          <mxGeometry x="360" y="690" width="80" height="80" as="geometry" />
        </mxCell>
        <mxCell id="a1JKhhDvmPs5Y0l_pd3h-19" value="" style="edgeStyle=orthogonalEdgeStyle;rounded=0;orthogonalLoop=1;jettySize=auto;html=1;" edge="1" parent="WIyWlLk6GJQsqaUBKTNV-1" source="a1JKhhDvmPs5Y0l_pd3h-12" target="a1JKhhDvmPs5Y0l_pd3h-18">
          <mxGeometry relative="1" as="geometry" />
        </mxCell>
        <mxCell id="a1JKhhDvmPs5Y0l_pd3h-12" value="&lt;span style=&quot;background-color: transparent; color: light-dark(rgb(0, 0, 0), rgb(255, 255, 255)); text-align: left;&quot;&gt;运行网络setting.json更新器&lt;/span&gt;" style="rounded=1;whiteSpace=wrap;html=1;" vertex="1" parent="WIyWlLk6GJQsqaUBKTNV-1">
          <mxGeometry x="340" y="800" width="120" height="60" as="geometry" />
        </mxCell>
        <mxCell id="a1JKhhDvmPs5Y0l_pd3h-15" value="Y" style="edgeStyle=orthogonalEdgeStyle;rounded=0;orthogonalLoop=1;jettySize=auto;html=1;" edge="1" parent="WIyWlLk6GJQsqaUBKTNV-1" source="a1JKhhDvmPs5Y0l_pd3h-14" target="a1JKhhDvmPs5Y0l_pd3h-8">
          <mxGeometry relative="1" as="geometry" />
        </mxCell>
        <mxCell id="a1JKhhDvmPs5Y0l_pd3h-17" value="N" style="edgeStyle=orthogonalEdgeStyle;rounded=0;orthogonalLoop=1;jettySize=auto;html=1;entryX=0;entryY=0.5;entryDx=0;entryDy=0;" edge="1" parent="WIyWlLk6GJQsqaUBKTNV-1" source="a1JKhhDvmPs5Y0l_pd3h-14" target="a1JKhhDvmPs5Y0l_pd3h-16">
          <mxGeometry relative="1" as="geometry">
            <Array as="points">
              <mxPoint x="220" y="610" />
              <mxPoint x="220" y="1030" />
            </Array>
          </mxGeometry>
        </mxCell>
        <mxCell id="a1JKhhDvmPs5Y0l_pd3h-14" value="是否AB模式" style="rhombus;whiteSpace=wrap;html=1;rounded=1;" vertex="1" parent="WIyWlLk6GJQsqaUBKTNV-1">
          <mxGeometry x="360" y="570" width="80" height="80" as="geometry" />
        </mxCell>
        <mxCell id="a1JKhhDvmPs5Y0l_pd3h-21" value="" style="edgeStyle=orthogonalEdgeStyle;rounded=0;orthogonalLoop=1;jettySize=auto;html=1;" edge="1" parent="WIyWlLk6GJQsqaUBKTNV-1" source="a1JKhhDvmPs5Y0l_pd3h-16" target="a1JKhhDvmPs5Y0l_pd3h-20">
          <mxGeometry relative="1" as="geometry" />
        </mxCell>
        <mxCell id="a1JKhhDvmPs5Y0l_pd3h-16" value="运行启动资源准备器" style="rounded=1;whiteSpace=wrap;html=1;" vertex="1" parent="WIyWlLk6GJQsqaUBKTNV-1">
          <mxGeometry x="340" y="1000" width="120" height="60" as="geometry" />
        </mxCell>
        <mxCell id="a1JKhhDvmPs5Y0l_pd3h-22" value="" style="edgeStyle=orthogonalEdgeStyle;rounded=0;orthogonalLoop=1;jettySize=auto;html=1;" edge="1" parent="WIyWlLk6GJQsqaUBKTNV-1" source="a1JKhhDvmPs5Y0l_pd3h-18" target="a1JKhhDvmPs5Y0l_pd3h-16">
          <mxGeometry relative="1" as="geometry" />
        </mxCell>
        <mxCell id="a1JKhhDvmPs5Y0l_pd3h-18" value="运行客户端更新检查器" style="whiteSpace=wrap;html=1;rounded=1;" vertex="1" parent="WIyWlLk6GJQsqaUBKTNV-1">
          <mxGeometry x="340" y="900" width="120" height="60" as="geometry" />
        </mxCell>
        <mxCell id="a1JKhhDvmPs5Y0l_pd3h-24" value="" style="edgeStyle=orthogonalEdgeStyle;rounded=0;orthogonalLoop=1;jettySize=auto;html=1;" edge="1" parent="WIyWlLk6GJQsqaUBKTNV-1" source="a1JKhhDvmPs5Y0l_pd3h-20" target="a1JKhhDvmPs5Y0l_pd3h-23">
          <mxGeometry relative="1" as="geometry" />
        </mxCell>
        <mxCell id="a1JKhhDvmPs5Y0l_pd3h-20" value="&lt;span style=&quot;text-align: left;&quot;&gt;运行逻辑代码入口启动器&lt;/span&gt;" style="whiteSpace=wrap;html=1;rounded=1;" vertex="1" parent="WIyWlLk6GJQsqaUBKTNV-1">
          <mxGeometry x="340" y="1090" width="120" height="60" as="geometry" />
        </mxCell>
        <mxCell id="a1JKhhDvmPs5Y0l_pd3h-23" value="启动结束" style="ellipse;html=1;shape=endState;fillColor=#000000;strokeColor=#ff0000;labelPosition=center;verticalLabelPosition=bottom;align=center;verticalAlign=top;" vertex="1" parent="WIyWlLk6GJQsqaUBKTNV-1">
          <mxGeometry x="385" y="1200" width="30" height="30" as="geometry" />
        </mxCell>
      </root>
    </mxGraphModel>
  </diagram>
</mxfile>
